<?xml version="1.0" encoding="UTF-8" standalone="no"?>
<!DOCTYPE svg PUBLIC "-//W3C//DTD SVG 1.0//EN" "http://www.w3.org/TR/2001/PR-SVG-20010719/DTD/svg10.dtd">
<svg width="22cm" height="15cm" viewBox="162 82 427 299" xmlns="http://www.w3.org/2000/svg" xmlns:xlink="http://www.w3.org/1999/xlink">
  <g>
    <rect style="fill: #ffffce" x="368" y="84" width="220" height="296"/>
    <rect style="fill: none; fill-opacity:0; stroke-width: 2; stroke: #000000" x="368" y="84" width="220" height="296"/>
    <text font-size="12.7998" style="fill: #000000;text-anchor:middle;font-family:sans-serif;font-style:normal;font-weight:normal" x="478" y="235.9">
      <tspan x="478" y="235.9"></tspan>
    </text>
  </g>
  <g>
    <rect style="fill: #90ee90" x="164" y="84" width="172" height="296"/>
    <rect style="fill: none; fill-opacity:0; stroke-width: 2; stroke: #000000" x="164" y="84" width="172" height="296"/>
    <text font-size="12.7998" style="fill: #000000;text-anchor:middle;font-family:sans-serif;font-style:normal;font-weight:normal" x="250" y="235.9">
      <tspan x="250" y="235.9"></tspan>
    </text>
  </g>
  <g>
    <rect style="fill: #ffffff" x="176" y="252" width="18" height="18"/>
    <rect style="fill: none; fill-opacity:0; stroke-width: 2; stroke: #000000" x="176" y="252" width="18" height="18"/>
    <text font-size="12.7998" style="fill: #000000;text-anchor:middle;font-family:sans-serif;font-style:normal;font-weight:normal" x="185" y="264.9">
      <tspan x="185" y="264.9">1</tspan>
    </text>
  </g>
  <g>
    <rect style="fill: #ffffff" x="194" y="252" width="18.3" height="18"/>
    <rect style="fill: none; fill-opacity:0; stroke-width: 2; stroke: #000000" x="194" y="252" width="18.3" height="18"/>
    <text font-size="12.7998" style="fill: #000000;text-anchor:middle;font-family:sans-serif;font-style:normal;font-weight:normal" x="203.15" y="264.9">
      <tspan x="203.15" y="264.9">2</tspan>
    </text>
  </g>
  <g>
    <rect style="fill: #ffffff" x="228" y="252" width="18" height="18"/>
    <rect style="fill: none; fill-opacity:0; stroke-width: 2; stroke: #000000" x="228" y="252" width="18" height="18"/>
    <text font-size="12.7998" style="fill: #000000;text-anchor:middle;font-family:sans-serif;font-style:normal;font-weight:normal" x="237" y="264.9">
      <tspan x="237" y="264.9">3</tspan>
    </text>
  </g>
  <g>
    <rect style="fill: #ffffff" x="204" y="132" width="48" height="77"/>
    <rect style="fill: none; fill-opacity:0; stroke-width: 2; stroke: #000000" x="204" y="132" width="48" height="77"/>
    <text font-size="12.7998" style="fill: #000000;text-anchor:middle;font-family:sans-serif;font-style:normal;font-weight:normal" x="228" y="174.4">
      <tspan x="228" y="174.4"></tspan>
    </text>
  </g>
  <g>
    <rect style="fill: #ffffff" x="252" y="132" width="48" height="77"/>
    <rect style="fill: none; fill-opacity:0; stroke-width: 2; stroke: #000000" x="252" y="132" width="48" height="77"/>
    <text font-size="12.7998" style="fill: #000000;text-anchor:middle;font-family:sans-serif;font-style:normal;font-weight:normal" x="276" y="174.4">
      <tspan x="276" y="174.4"></tspan>
    </text>
  </g>
  <text font-size="12.7998" style="fill: #000000;text-anchor:start;font-family:sans-serif;font-style:normal;font-weight:normal" x="304" y="224">
    <tspan x="304" y="224">1</tspan>
  </text>
  <text font-size="12.7998" style="fill: #000000;text-anchor:start;font-family:sans-serif;font-style:normal;font-weight:normal" x="304" y="128">
    <tspan x="304" y="128">2</tspan>
  </text>
  <text font-size="12.7998" style="fill: #000000;text-anchor:start;font-family:sans-serif;font-style:normal;font-weight:normal" x="248" y="224">
    <tspan x="248" y="224">3</tspan>
  </text>
  <text font-size="12.7998" style="fill: #000000;text-anchor:start;font-family:sans-serif;font-style:normal;font-weight:normal" x="244" y="128">
    <tspan x="244" y="128">4</tspan>
  </text>
  <text font-size="12.7998" style="fill: #000000;text-anchor:start;font-family:sans-serif;font-style:normal;font-weight:normal" x="192" y="224">
    <tspan x="192" y="224">5</tspan>
  </text>
  <text font-size="12.7998" style="fill: #000000;text-anchor:start;font-family:sans-serif;font-style:normal;font-weight:normal" x="192" y="128">
    <tspan x="192" y="128">6</tspan>
  </text>
  <g>
    <g>
      <g>
        <rect style="fill: #ffffff" x="412" y="132" width="48" height="77"/>
        <rect style="fill: none; fill-opacity:0; stroke-width: 2; stroke: #000000" x="412" y="132" width="48" height="77"/>
        <text font-size="12.7998" style="fill: #000000;text-anchor:middle;font-family:sans-serif;font-style:normal;font-weight:normal" x="436" y="174.4">
          <tspan x="436" y="174.4"></tspan>
        </text>
      </g>
      <line style="fill: none; fill-opacity:0; stroke-width: 2; stroke: #000000" x1="412" y1="132" x2="460" y2="209"/>
    </g>
    <g>
      <g>
        <rect style="fill: #ffffff" x="460" y="132" width="48" height="77"/>
        <rect style="fill: none; fill-opacity:0; stroke-width: 2; stroke: #000000" x="460" y="132" width="48" height="77"/>
        <text font-size="12.7998" style="fill: #000000;text-anchor:middle;font-family:sans-serif;font-style:normal;font-weight:normal" x="484" y="174.4">
          <tspan x="484" y="174.4"></tspan>
        </text>
      </g>
      <line style="fill: none; fill-opacity:0; stroke-width: 2; stroke: #000000" x1="460" y1="132" x2="508" y2="209"/>
    </g>
    <text font-size="12.7998" style="fill: #000000;text-anchor:start;font-family:sans-serif;font-style:normal;font-weight:normal" x="400" y="224">
      <tspan x="400" y="224">1</tspan>
    </text>
    <text font-size="12.7998" style="fill: #000000;text-anchor:start;font-family:sans-serif;font-style:normal;font-weight:normal" x="400" y="128">
      <tspan x="400" y="128">2</tspan>
    </text>
    <text font-size="12.7998" style="fill: #000000;text-anchor:start;font-family:sans-serif;font-style:normal;font-weight:normal" x="456" y="224">
      <tspan x="456" y="224">3</tspan>
    </text>
    <text font-size="12.7998" style="fill: #000000;text-anchor:start;font-family:sans-serif;font-style:normal;font-weight:normal" x="452" y="128">
      <tspan x="452" y="128">4</tspan>
    </text>
    <text font-size="12.7998" style="fill: #000000;text-anchor:start;font-family:sans-serif;font-style:normal;font-weight:normal" x="512" y="224">
      <tspan x="512" y="224">5</tspan>
    </text>
    <text font-size="12.7998" style="fill: #000000;text-anchor:start;font-family:sans-serif;font-style:normal;font-weight:normal" x="512" y="128">
      <tspan x="512" y="128">6</tspan>
    </text>
  </g>
  <g>
    <line style="fill: none; fill-opacity:0; stroke-width: 2; stroke: #000000" x1="324" y1="168" x2="382.264" y2="168"/>
    <polygon style="fill: #000000" points="389.764,168 379.764,173 382.264,168 379.764,163 "/>
    <polygon style="fill: none; fill-opacity:0; stroke-width: 2; stroke: #000000" points="389.764,168 379.764,173 382.264,168 379.764,163 "/>
  </g>
  <g>
    <rect style="fill: #ffffff" x="212" y="252" width="18" height="18"/>
    <rect style="fill: none; fill-opacity:0; stroke-width: 2; stroke: #000000" x="212" y="252" width="18" height="18"/>
    <text font-size="12.7998" style="fill: #000000;text-anchor:middle;font-family:sans-serif;font-style:normal;font-weight:normal" x="221" y="264.9">
      <tspan x="221" y="264.9">4</tspan>
    </text>
  </g>
  <g>
    <rect style="fill: #ffffff" x="304" y="252" width="18" height="18"/>
    <rect style="fill: none; fill-opacity:0; stroke-width: 2; stroke: #000000" x="304" y="252" width="18" height="18"/>
    <text font-size="12.7998" style="fill: #000000;text-anchor:middle;font-family:sans-serif;font-style:normal;font-weight:normal" x="313" y="264.9">
      <tspan x="313" y="264.9">5</tspan>
    </text>
  </g>
  <g>
    <rect style="fill: #ffffff" x="288" y="252" width="18" height="18"/>
    <rect style="fill: none; fill-opacity:0; stroke-width: 2; stroke: #000000" x="288" y="252" width="18" height="18"/>
    <text font-size="12.7998" style="fill: #000000;text-anchor:middle;font-family:sans-serif;font-style:normal;font-weight:normal" x="297" y="264.9">
      <tspan x="297" y="264.9">6</tspan>
    </text>
  </g>
  <g>
    <rect style="fill: #ffffff" x="272" y="252" width="18" height="18"/>
    <rect style="fill: none; fill-opacity:0; stroke-width: 2; stroke: #000000" x="272" y="252" width="18" height="18"/>
    <text font-size="12.7998" style="fill: #000000;text-anchor:middle;font-family:sans-serif;font-style:normal;font-weight:normal" x="281" y="264.9">
      <tspan x="281" y="264.9">3</tspan>
    </text>
  </g>
  <g>
    <rect style="fill: #ffffff" x="256" y="252" width="18" height="18"/>
    <rect style="fill: none; fill-opacity:0; stroke-width: 2; stroke: #000000" x="256" y="252" width="18" height="18"/>
    <text font-size="12.7998" style="fill: #000000;text-anchor:middle;font-family:sans-serif;font-style:normal;font-weight:normal" x="265" y="264.9">
      <tspan x="265" y="264.9">4</tspan>
    </text>
  </g>
  <g>
    <rect style="fill: #ffffff" x="402" y="252" width="18" height="18"/>
    <rect style="fill: none; fill-opacity:0; stroke-width: 2; stroke: #000000" x="402" y="252" width="18" height="18"/>
    <text font-size="12.7998" style="fill: #000000;text-anchor:middle;font-family:sans-serif;font-style:normal;font-weight:normal" x="411" y="264.9">
      <tspan x="411" y="264.9">1</tspan>
    </text>
  </g>
  <g>
    <rect style="fill: #ffffff" x="420" y="252" width="18.3" height="18"/>
    <rect style="fill: none; fill-opacity:0; stroke-width: 2; stroke: #000000" x="420" y="252" width="18.3" height="18"/>
    <text font-size="12.7998" style="fill: #000000;text-anchor:middle;font-family:sans-serif;font-style:normal;font-weight:normal" x="429.15" y="264.9">
      <tspan x="429.15" y="264.9">2</tspan>
    </text>
  </g>
  <g>
    <rect style="fill: #ffffff" x="438" y="252" width="18" height="18"/>
    <rect style="fill: none; fill-opacity:0; stroke-width: 2; stroke: #000000" x="438" y="252" width="18" height="18"/>
    <text font-size="12.7998" style="fill: #000000;text-anchor:middle;font-family:sans-serif;font-style:normal;font-weight:normal" x="447" y="264.9">
      <tspan x="447" y="264.9">3</tspan>
    </text>
  </g>
  <g>
    <rect style="fill: #ffffff" x="504" y="252" width="18" height="18"/>
    <rect style="fill: none; fill-opacity:0; stroke-width: 2; stroke: #000000" x="504" y="252" width="18" height="18"/>
    <text font-size="12.7998" style="fill: #000000;text-anchor:middle;font-family:sans-serif;font-style:normal;font-weight:normal" x="513" y="264.9">
      <tspan x="513" y="264.9">4</tspan>
    </text>
  </g>
  <g>
    <rect style="fill: #ffffff" x="438" y="280" width="18" height="18"/>
    <rect style="fill: none; fill-opacity:0; stroke-width: 2; stroke: #000000" x="438" y="280" width="18" height="18"/>
    <text font-size="12.7998" style="fill: #000000;text-anchor:middle;font-family:sans-serif;font-style:normal;font-weight:normal" x="447" y="292.9">
      <tspan x="447" y="292.9">5</tspan>
    </text>
  </g>
  <g>
    <rect style="fill: #ffffff" x="504" y="280" width="18" height="18"/>
    <rect style="fill: none; fill-opacity:0; stroke-width: 2; stroke: #000000" x="504" y="280" width="18" height="18"/>
    <text font-size="12.7998" style="fill: #000000;text-anchor:middle;font-family:sans-serif;font-style:normal;font-weight:normal" x="513" y="292.9">
      <tspan x="513" y="292.9">6</tspan>
    </text>
  </g>
  <g>
    <rect style="fill: #ffffff" x="468" y="252" width="18.3" height="18"/>
    <rect style="fill: none; fill-opacity:0; stroke-width: 2; stroke: #000000" x="468" y="252" width="18.3" height="18"/>
    <text font-size="12.7998" style="fill: #000000;text-anchor:middle;font-family:sans-serif;font-style:normal;font-weight:normal" x="477.15" y="264.9">
      <tspan x="477.15" y="264.9">2</tspan>
    </text>
  </g>
  <g>
    <rect style="fill: #ffffff" x="486" y="252" width="18" height="18"/>
    <rect style="fill: none; fill-opacity:0; stroke-width: 2; stroke: #000000" x="486" y="252" width="18" height="18"/>
    <text font-size="12.7998" style="fill: #000000;text-anchor:middle;font-family:sans-serif;font-style:normal;font-weight:normal" x="495" y="264.9">
      <tspan x="495" y="264.9">3</tspan>
    </text>
  </g>
  <g>
    <rect style="fill: #ffffff" x="420" y="280" width="18" height="18"/>
    <rect style="fill: none; fill-opacity:0; stroke-width: 2; stroke: #000000" x="420" y="280" width="18" height="18"/>
    <text font-size="12.7998" style="fill: #000000;text-anchor:middle;font-family:sans-serif;font-style:normal;font-weight:normal" x="429" y="292.9">
      <tspan x="429" y="292.9">4</tspan>
    </text>
  </g>
  <g>
    <rect style="fill: #ffffff" x="402" y="280" width="18" height="18"/>
    <rect style="fill: none; fill-opacity:0; stroke-width: 2; stroke: #000000" x="402" y="280" width="18" height="18"/>
    <text font-size="12.7998" style="fill: #000000;text-anchor:middle;font-family:sans-serif;font-style:normal;font-weight:normal" x="411" y="292.9">
      <tspan x="411" y="292.9">3</tspan>
    </text>
  </g>
  <g>
    <rect style="fill: #ffffff" x="486" y="280" width="18" height="18"/>
    <rect style="fill: none; fill-opacity:0; stroke-width: 2; stroke: #000000" x="486" y="280" width="18" height="18"/>
    <text font-size="12.7998" style="fill: #000000;text-anchor:middle;font-family:sans-serif;font-style:normal;font-weight:normal" x="495" y="292.9">
      <tspan x="495" y="292.9">5</tspan>
    </text>
  </g>
  <g>
    <rect style="fill: #ffffff" x="468" y="280" width="18" height="18"/>
    <rect style="fill: none; fill-opacity:0; stroke-width: 2; stroke: #000000" x="468" y="280" width="18" height="18"/>
    <text font-size="12.7998" style="fill: #000000;text-anchor:middle;font-family:sans-serif;font-style:normal;font-weight:normal" x="477" y="292.9">
      <tspan x="477" y="292.9">4</tspan>
    </text>
  </g>
  <g>
    <line style="fill: none; fill-opacity:0; stroke-width: 2; stroke: #000000" x1="462" y1="302" x2="462" y2="320.264"/>
    <polygon style="fill: #000000" points="462,327.764 457,317.764 462,320.264 467,317.764 "/>
    <polygon style="fill: none; fill-opacity:0; stroke-width: 2; stroke: #000000" points="462,327.764 457,317.764 462,320.264 467,317.764 "/>
  </g>
  <g>
    <rect style="fill: #ffffff" x="408" y="340" width="18" height="18"/>
    <rect style="fill: none; fill-opacity:0; stroke-width: 2; stroke: #000000" x="408" y="340" width="18" height="18"/>
    <text font-size="12.7998" style="fill: #000000;text-anchor:middle;font-family:sans-serif;font-style:normal;font-weight:normal" x="417" y="352.9">
      <tspan x="417" y="352.9">1</tspan>
    </text>
  </g>
  <g>
    <rect style="fill: #ffffff" x="426" y="340" width="18.3" height="18"/>
    <rect style="fill: none; fill-opacity:0; stroke-width: 2; stroke: #000000" x="426" y="340" width="18.3" height="18"/>
    <text font-size="12.7998" style="fill: #000000;text-anchor:middle;font-family:sans-serif;font-style:normal;font-weight:normal" x="435.15" y="352.9">
      <tspan x="435.15" y="352.9">2</tspan>
    </text>
  </g>
  <g>
    <rect style="fill: #ffffff" x="444" y="340" width="18" height="18"/>
    <rect style="fill: none; fill-opacity:0; stroke-width: 2; stroke: #000000" x="444" y="340" width="18" height="18"/>
    <text font-size="12.7998" style="fill: #000000;text-anchor:middle;font-family:sans-serif;font-style:normal;font-weight:normal" x="453" y="352.9">
      <tspan x="453" y="352.9">3</tspan>
    </text>
  </g>
  <g>
    <rect style="fill: #ffffff" x="498" y="340" width="18" height="18"/>
    <rect style="fill: none; fill-opacity:0; stroke-width: 2; stroke: #000000" x="498" y="340" width="18" height="18"/>
    <text font-size="12.7998" style="fill: #000000;text-anchor:middle;font-family:sans-serif;font-style:normal;font-weight:normal" x="507" y="352.9">
      <tspan x="507" y="352.9">6</tspan>
    </text>
  </g>
  <g>
    <rect style="fill: #ffffff" x="480" y="340" width="18" height="18"/>
    <rect style="fill: none; fill-opacity:0; stroke-width: 2; stroke: #000000" x="480" y="340" width="18" height="18"/>
    <text font-size="12.7998" style="fill: #000000;text-anchor:middle;font-family:sans-serif;font-style:normal;font-weight:normal" x="489" y="352.9">
      <tspan x="489" y="352.9">5</tspan>
    </text>
  </g>
  <g>
    <rect style="fill: #ffffff" x="462" y="340" width="18" height="18"/>
    <rect style="fill: none; fill-opacity:0; stroke-width: 2; stroke: #000000" x="462" y="340" width="18" height="18"/>
    <text font-size="12.7998" style="fill: #000000;text-anchor:middle;font-family:sans-serif;font-style:normal;font-weight:normal" x="471" y="352.9">
      <tspan x="471" y="352.9">4</tspan>
    </text>
  </g>
  <text font-size="12.7998" style="fill: #000000;text-anchor:start;font-family:sans-serif;font-style:normal;font-weight:normal" x="552" y="276">
    <tspan x="552" y="276">List</tspan>
  </text>
  <text font-size="12.7998" style="fill: #000000;text-anchor:start;font-family:sans-serif;font-style:normal;font-weight:normal" x="548" y="352">
    <tspan x="548" y="352">Strip</tspan>
  </text>
  <text font-size="12.7998" style="fill: #000000;text-anchor:start;font-family:sans-serif;font-style:normal;font-weight:normal" x="228" y="104">
    <tspan x="228" y="104">Quads</tspan>
  </text>
  <text font-size="12.7998" style="fill: #000000;text-anchor:start;font-family:sans-serif;font-style:normal;font-weight:normal" x="428" y="104">
    <tspan x="428" y="104">Triangles</tspan>
  </text>
</svg>
